<?xml version="1.0" encoding="UTF-8"?>
<svg xmlns="http://www.w3.org/2000/svg" viewBox="159.39 394.59 242.08 50.40">
  <path fill="#0B0B0F" d="M185.83,404.81v40.18h-11.09v-40.18h-15.34v-10.22h41.76v10.22h-15.34Z"/>
  <path fill="#0B0B0F" d="M240.26,444.99l-10.8-16.13h-8.71v16.13h-11.09v-50.4h23.04c6,0,10.67,1.46,14,4.39,3.34,2.93,5,7.01,5,12.24v.14c0,4.08-1,7.4-2.99,9.97-1.99,2.57-4.6,4.45-7.81,5.65l12.31,18h-12.96ZM240.48,411.8c0-2.4-.77-4.2-2.3-5.4-1.54-1.2-3.67-1.8-6.41-1.8h-11.02v14.47h11.23c2.74,0,4.83-.65,6.3-1.94,1.46-1.3,2.2-3.02,2.2-5.18v-.14Z"/>
  <path fill="#0B0B0F" d="M286.99,424.9v20.09h-11.09v-19.87l-19.37-30.53h12.96l12.02,20.23,12.24-20.23h12.6l-19.37,30.31Z"/>
  <path fill="#0B0B0F" d="M354.71,437.21c-.89,1.73-2.16,3.17-3.81,4.32-1.65,1.15-3.64,2.02-5.97,2.59s-4.9.86-7.73.86h-23.94v-50.4h23.36c5.17,0,9.23,1.18,12.18,3.53,2.95,2.35,4.42,5.52,4.42,9.5v.14c0,1.44-.18,2.71-.54,3.82-.36,1.1-.83,2.1-1.43,2.99-.6.89-1.29,1.67-2.07,2.34-.79.67-1.63,1.25-2.54,1.73,2.91,1.1,5.21,2.6,6.88,4.5,1.67,1.9,2.51,4.52,2.51,7.88v.14c0,2.3-.44,4.32-1.33,6.05ZM342.29,409.49c0-1.68-.62-2.96-1.87-3.85-1.25-.89-3.05-1.33-5.4-1.33h-10.94v10.66h10.22c2.45,0,4.39-.42,5.83-1.26,1.44-.84,2.16-2.2,2.16-4.07v-.14ZM345.09,429.65c0-1.68-.65-3.01-1.94-4-1.3-.98-3.38-1.48-6.26-1.48h-12.82v11.09h13.18c2.45,0,4.37-.44,5.76-1.33,1.39-.89,2.09-2.27,2.09-4.14v-.14Z"/>
  <path fill="#0B0B0F" d="M365.25,444.99v-50.4h11.09v40.39h25.13v10.01h-36.22Z"/>
</svg>


